M48
; DRILL file {KiCad 9.0.5} date 2025-11-07T22:43:29-0800
; FORMAT={-:-/ absolute / metric / decimal}
; #@! TF.CreationDate,2025-11-07T22:43:29-08:00
; #@! TF.GenerationSoftware,Kicad,Pcbnew,9.0.5
; #@! TF.FileFunction,Plated,1,2,PTH
FMAT,2
METRIC
; #@! TA.AperFunction,Plated,PTH,ViaDrill
T1C0.300
; #@! TA.AperFunction,Plated,PTH,ComponentDrill
T2C0.762
; #@! TA.AperFunction,Plated,PTH,ComponentDrill
T3C1.000
; #@! TA.AperFunction,Plated,PTH,ComponentDrill
T4C1.300
; #@! TA.AperFunction,Plated,PTH,ComponentDrill
T5C1.600
; #@! TA.AperFunction,Plated,PTH,ComponentDrill
T6C1.700
%
G90
G05
T1
X170.058Y-91.457
X171.196Y-100.002
X171.196Y-100.637
X171.196Y-101.272
X171.196Y-101.907
X171.704Y-108.511
X171.831Y-100.002
X171.831Y-100.637
X171.831Y-101.272
X171.831Y-101.907
X172.466Y-100.002
X172.466Y-100.637
X172.466Y-101.272
X172.466Y-101.907
X172.649Y-80.328
X172.979Y-91.178
X173.443Y-96.814
X173.731Y-96.068
X173.863Y-76.374
X174.022Y-97.367
X174.285Y-54.112
X174.371Y-78.666
X175.006Y-53.766
X175.006Y-73.205
X176.403Y-97.367
X176.53Y-96.065
X177.038Y-96.708
X177.165Y-50.218
X178.562Y-108.257
X178.689Y-49.591
X180.992Y-71.167
X180.992Y-73.84
X184.404Y-100.203
X185.674Y-69.649
X186.436Y-72.697
X188.6Y-73.967
X188.676Y-59.119
X190.373Y-79.03
X192.659Y-80.19
X195.707Y-79.174
X198.501Y-105.082
X199.39Y-75.474
X199.39Y-78.157
X200.451Y-74.257
X201.041Y-108.257
X206.574Y-75.474
X206.747Y-70.703
X207.01Y-77.286
X207.374Y-69.903
X207.374Y-75.474
X208.534Y-77.286
X210.102Y-71.427
X210.439Y-69.903
X211.328Y-78.285
X211.582Y-69.903
X212.471Y-69.903
X213.995Y-82.791
X214.704Y-91.891
X218.313Y-82.791
X219.519Y-91.938
X221.615Y-82.791
X221.996Y-65.331
X221.996Y-66.093
X221.996Y-66.855
X221.996Y-67.617
X222.758Y-65.331
X222.758Y-66.093
X222.758Y-66.855
X222.758Y-67.617
X223.52Y-65.331
X223.52Y-66.093
X223.52Y-66.855
X223.52Y-67.617
X224.282Y-65.331
X224.282Y-66.093
X224.282Y-66.855
X224.282Y-67.617
X224.472Y-91.938
X225.044Y-65.331
X225.044Y-66.093
X225.044Y-66.855
X225.044Y-67.617
T2
X188.214Y-87.81
X188.214Y-110.67
X190.754Y-87.81
X190.754Y-110.67
X193.294Y-87.81
X193.294Y-110.67
X195.834Y-87.81
X195.834Y-110.67
X198.374Y-87.81
X198.374Y-110.67
X200.914Y-87.81
X200.914Y-110.67
X203.454Y-87.81
X203.454Y-110.67
X205.994Y-87.81
X205.994Y-110.67
X208.534Y-87.81
X208.534Y-110.67
X211.074Y-87.81
X211.074Y-110.67
X213.614Y-87.81
X213.614Y-110.67
X216.154Y-87.81
X216.154Y-110.67
X218.694Y-87.81
X218.694Y-110.67
X221.234Y-87.81
X221.234Y-110.67
X223.774Y-87.81
X223.774Y-110.67
X226.314Y-87.81
X226.314Y-110.67
X228.854Y-87.81
X228.854Y-110.67
X231.394Y-87.81
X231.394Y-110.67
X233.934Y-87.81
X233.934Y-110.67
T3
X167.64Y-88.445
X170.434Y-97.589
X175.26Y-48.821
X177.094Y-55.055
X177.094Y-57.595
X177.094Y-60.135
X177.094Y-62.675
X177.094Y-65.215
X177.094Y-67.755
X177.094Y-70.295
X177.094Y-72.835
X177.21Y-91.186
X177.292Y-76.761
X179.451Y-47.678
X182.21Y-91.186
X187.452Y-76.507
X191.135Y-76.38
X193.096Y-54.837
X193.096Y-57.377
X193.096Y-59.917
X193.096Y-62.457
X193.096Y-64.997
X193.096Y-67.537
X193.096Y-70.077
X193.096Y-72.617
X202.882Y-72.633
X204.089Y-67.871
X204.47Y-53.647
X204.47Y-56.187
X204.47Y-58.727
X204.47Y-61.267
X204.47Y-63.807
X210.104Y-74.349
X210.133Y-59.744
X212.644Y-74.349
X212.673Y-59.744
X215.184Y-74.349
X215.213Y-59.744
X217.724Y-74.349
X217.753Y-59.744
X219.71Y-113.845
X220.264Y-74.349
X220.293Y-59.744
X222.804Y-74.349
X222.833Y-59.744
X225.344Y-74.349
X225.373Y-59.744
X227.076Y-114.099
X227.884Y-74.349
X227.913Y-59.744
X230.424Y-74.349
X230.453Y-59.744
X232.964Y-74.349
X232.993Y-59.744
X235.504Y-74.349
X235.533Y-59.744
X238.044Y-74.349
X238.073Y-59.744
T4
X166.47Y-116.365
X171.47Y-116.365
X178.328Y-116.365
X183.328Y-116.365
T5
X160.83Y-101.091
X163.83Y-105.791
X166.83Y-101.091
T6
X161.91Y-52.458
X161.91Y-56.418
X161.91Y-60.378
X161.91Y-64.338
X161.91Y-68.298
X161.91Y-74.683
X161.91Y-78.643
X161.91Y-82.603
X161.91Y-86.563
X161.91Y-90.523
M30
