%TF.GenerationSoftware,KiCad,Pcbnew,9.0.5*%
%TF.CreationDate,2025-11-07T06:39:15-08:00*%
%TF.ProjectId,SoftKeyboardController,536f6674-4b65-4796-926f-617264436f6e,v1.5*%
%TF.SameCoordinates,Original*%
%TF.FileFunction,Soldermask,Top*%
%TF.FilePolarity,Negative*%
%FSLAX46Y46*%
G04 Gerber Fmt 4.6, Leading zero omitted, Abs format (unit mm)*
G04 Created by KiCad (PCBNEW 9.0.5) date 2025-11-07 06:39:15*
%MOMM*%
%LPD*%
G01*
G04 APERTURE LIST*
G04 Aperture macros list*
%AMRoundRect*
0 Rectangle with rounded corners*
0 $1 Rounding radius*
0 $2 $3 $4 $5 $6 $7 $8 $9 X,Y pos of 4 corners*
0 Add a 4 corners polygon primitive as box body*
4,1,4,$2,$3,$4,$5,$6,$7,$8,$9,$2,$3,0*
0 Add four circle primitives for the rounded corners*
1,1,$1+$1,$2,$3*
1,1,$1+$1,$4,$5*
1,1,$1+$1,$6,$7*
1,1,$1+$1,$8,$9*
0 Add four rect primitives between the rounded corners*
20,1,$1+$1,$2,$3,$4,$5,0*
20,1,$1+$1,$4,$5,$6,$7,0*
20,1,$1+$1,$6,$7,$8,$9,0*
20,1,$1+$1,$8,$9,$2,$3,0*%
G04 Aperture macros list end*
%ADD10RoundRect,0.250000X-0.450000X0.262500X-0.450000X-0.262500X0.450000X-0.262500X0.450000X0.262500X0*%
%ADD11RoundRect,0.250000X0.450000X-0.262500X0.450000X0.262500X-0.450000X0.262500X-0.450000X-0.262500X0*%
%ADD12R,1.700000X1.700000*%
%ADD13C,1.700000*%
%ADD14RoundRect,0.250000X0.262500X0.450000X-0.262500X0.450000X-0.262500X-0.450000X0.262500X-0.450000X0*%
%ADD15R,2.600000X2.600000*%
%ADD16C,2.600000*%
%ADD17R,0.300000X1.450000*%
%ADD18R,4.900000X3.100000*%
%ADD19RoundRect,0.250000X-0.475000X0.250000X-0.475000X-0.250000X0.475000X-0.250000X0.475000X0.250000X0*%
%ADD20RoundRect,0.250000X1.800000X-1.330000X1.800000X1.330000X-1.800000X1.330000X-1.800000X-1.330000X0*%
%ADD21O,4.100000X3.160000*%
%ADD22RoundRect,0.250000X-1.050000X-1.050000X1.050000X-1.050000X1.050000X1.050000X-1.050000X1.050000X0*%
%ADD23RoundRect,0.100000X0.100000X-0.637500X0.100000X0.637500X-0.100000X0.637500X-0.100000X-0.637500X0*%
%ADD24C,2.500000*%
%ADD25RoundRect,0.250000X-0.262500X-0.450000X0.262500X-0.450000X0.262500X0.450000X-0.262500X0.450000X0*%
%ADD26C,2.000000*%
%ADD27RoundRect,0.250000X-0.550000X-0.550000X0.550000X-0.550000X0.550000X0.550000X-0.550000X0.550000X0*%
%ADD28C,1.600000*%
%ADD29C,1.524000*%
%ADD30RoundRect,0.250000X0.250000X0.475000X-0.250000X0.475000X-0.250000X-0.475000X0.250000X-0.475000X0*%
%ADD31RoundRect,0.150000X0.512500X0.150000X-0.512500X0.150000X-0.512500X-0.150000X0.512500X-0.150000X0*%
%ADD32R,0.450000X1.050000*%
%ADD33R,0.895000X1.470000*%
%ADD34RoundRect,0.100000X0.850000X0.100000X-0.850000X0.100000X-0.850000X-0.100000X0.850000X-0.100000X0*%
G04 APERTURE END LIST*
D10*
%TO.C,R6*%
X216154000Y-92231500D03*
X216154000Y-94056500D03*
%TD*%
D11*
%TO.C,R3*%
X172974000Y-109677500D03*
X172974000Y-107852500D03*
%TD*%
D12*
%TO.C,J2*%
X204470000Y-53647000D03*
D13*
X204470000Y-56187000D03*
X204470000Y-58727000D03*
X204470000Y-61267000D03*
X204470000Y-63807000D03*
%TD*%
D14*
%TO.C,R14*%
X184808500Y-69649000D03*
X182983500Y-69649000D03*
%TD*%
D15*
%TO.C,J1*%
X166830000Y-101091000D03*
D16*
X160830000Y-101091000D03*
X163830000Y-105791000D03*
%TD*%
D17*
%TO.C,IC1*%
X214494200Y-69654400D03*
X214994200Y-69654400D03*
X215494200Y-69654400D03*
X215994200Y-69654400D03*
X216494200Y-69654400D03*
X216994200Y-69654400D03*
X217494200Y-69654400D03*
X217994200Y-69654400D03*
X218494200Y-69654400D03*
X218994200Y-69654400D03*
X219494200Y-69654400D03*
X219994200Y-69654400D03*
X220494200Y-69654400D03*
X220994200Y-69654400D03*
X221494200Y-69654400D03*
X221994200Y-69654400D03*
X222494200Y-69654400D03*
X222994200Y-69654400D03*
X223494200Y-69654400D03*
X223494200Y-63804400D03*
X222994200Y-63804400D03*
X222494200Y-63804400D03*
X221994200Y-63804400D03*
X221494200Y-63804400D03*
X220994200Y-63804400D03*
X220494200Y-63804400D03*
X219994200Y-63804400D03*
X219494200Y-63804400D03*
X218994200Y-63804400D03*
X218494200Y-63804400D03*
X217994200Y-63804400D03*
X217494200Y-63804400D03*
X216994200Y-63804400D03*
X216494200Y-63804400D03*
X215994200Y-63804400D03*
X215494200Y-63804400D03*
X214994200Y-63804400D03*
X214494200Y-63804400D03*
D18*
X218994200Y-66729400D03*
%TD*%
D19*
%TO.C,C5*%
X195707000Y-76446000D03*
X195707000Y-78346000D03*
%TD*%
D20*
%TO.C,J10*%
X161910000Y-68298000D03*
D21*
X161910000Y-64338000D03*
X161910000Y-60378000D03*
X161910000Y-56418000D03*
X161910000Y-52458000D03*
%TD*%
D22*
%TO.C,J3*%
X166470000Y-116365000D03*
D16*
X171470000Y-116365000D03*
%TD*%
D23*
%TO.C,U3*%
X169739000Y-73157500D03*
X170389000Y-73157500D03*
X171039000Y-73157500D03*
X171689000Y-73157500D03*
X172339000Y-73157500D03*
X172989000Y-73157500D03*
X173639000Y-73157500D03*
X174289000Y-73157500D03*
X174289000Y-67432500D03*
X173639000Y-67432500D03*
X172989000Y-67432500D03*
X172339000Y-67432500D03*
X171689000Y-67432500D03*
X171039000Y-67432500D03*
X170389000Y-67432500D03*
X169739000Y-67432500D03*
%TD*%
D24*
%TO.C,H2*%
X157480000Y-116840000D03*
%TD*%
D25*
%TO.C,R7*%
X211027000Y-71427000D03*
X212852000Y-71427000D03*
%TD*%
D10*
%TO.C,R1*%
X198501000Y-92485500D03*
X198501000Y-94310500D03*
%TD*%
D11*
%TO.C,R4*%
X177038000Y-109423500D03*
X177038000Y-107598500D03*
%TD*%
%TO.C,R10*%
X165862000Y-78689500D03*
X165862000Y-76864500D03*
%TD*%
%TO.C,R9*%
X166116000Y-55321500D03*
X166116000Y-53496500D03*
%TD*%
D26*
%TO.C,TP7*%
X179451000Y-47678000D03*
%TD*%
D27*
%TO.C,C1*%
X177798349Y-92763000D03*
D28*
X181298349Y-92763000D03*
%TD*%
D22*
%TO.C,J4*%
X178328000Y-116365000D03*
D16*
X183328000Y-116365000D03*
%TD*%
D29*
%TO.C,ESP1*%
X233934000Y-87810000D03*
X231394000Y-87810000D03*
X228854000Y-87810000D03*
X226314000Y-87810000D03*
X223774000Y-87810000D03*
X221234000Y-87810000D03*
X218694000Y-87810000D03*
X216154000Y-87810000D03*
X213614000Y-87810000D03*
X211074000Y-87810000D03*
X208534000Y-87810000D03*
X205994000Y-87810000D03*
X203454000Y-87810000D03*
X200914000Y-87810000D03*
X198374000Y-87810000D03*
X195834000Y-87810000D03*
X193294000Y-87810000D03*
X190754000Y-87810000D03*
X188214000Y-87810000D03*
X188214000Y-110670000D03*
X190754000Y-110670000D03*
X193294000Y-110670000D03*
X195834000Y-110670000D03*
X198374000Y-110670000D03*
X200914000Y-110670000D03*
X203454000Y-110670000D03*
X205994000Y-110670000D03*
X208534000Y-110670000D03*
X211074000Y-110670000D03*
X213614000Y-110670000D03*
X216154000Y-110670000D03*
X218694000Y-110670000D03*
X221234000Y-110670000D03*
X223774000Y-110670000D03*
X226314000Y-110670000D03*
X228854000Y-110670000D03*
X231394000Y-110670000D03*
X233934000Y-110670000D03*
%TD*%
D26*
%TO.C,TP6*%
X202882500Y-72633500D03*
%TD*%
%TO.C,TP11*%
X170434000Y-97589000D03*
%TD*%
%TO.C,TP2*%
X191135000Y-76380000D03*
%TD*%
%TO.C,TP4*%
X219710000Y-113845000D03*
%TD*%
D10*
%TO.C,R5*%
X220980000Y-92382000D03*
X220980000Y-94207000D03*
%TD*%
D12*
%TO.C,J8*%
X177094000Y-72835000D03*
D13*
X177094000Y-70295000D03*
X177094000Y-67755000D03*
X177094000Y-65215000D03*
X177094000Y-62675000D03*
X177094000Y-60135000D03*
X177094000Y-57595000D03*
X177094000Y-55055000D03*
%TD*%
D25*
%TO.C,R13*%
X182094500Y-76634000D03*
X183919500Y-76634000D03*
%TD*%
D12*
%TO.C,J7*%
X193096400Y-72616800D03*
D13*
X193096400Y-70076800D03*
X193096400Y-67536800D03*
X193096400Y-64996800D03*
X193096400Y-62456800D03*
X193096400Y-59916800D03*
X193096400Y-57376800D03*
X193096400Y-54836800D03*
%TD*%
D30*
%TO.C,C6*%
X182052000Y-98859000D03*
X180152000Y-98859000D03*
%TD*%
D11*
%TO.C,R12*%
X188600200Y-73110600D03*
X188600200Y-71285600D03*
%TD*%
D24*
%TO.C,H1*%
X236220000Y-116840000D03*
%TD*%
D12*
%TO.C,J6*%
X210104200Y-74349400D03*
D13*
X212644200Y-74349400D03*
X215184200Y-74349400D03*
X217724200Y-74349400D03*
X220264200Y-74349400D03*
X222804200Y-74349400D03*
X225344200Y-74349400D03*
X227884200Y-74349400D03*
X230424200Y-74349400D03*
X232964200Y-74349400D03*
X235504200Y-74349400D03*
X238044200Y-74349400D03*
%TD*%
D19*
%TO.C,C3*%
X170058100Y-92376800D03*
X170058100Y-94276800D03*
%TD*%
D24*
%TO.C,H3*%
X157480000Y-46990000D03*
%TD*%
D26*
%TO.C,TP8*%
X175260000Y-48821000D03*
%TD*%
D23*
%TO.C,U2*%
X195901400Y-72939300D03*
X196551400Y-72939300D03*
X197201400Y-72939300D03*
X197851400Y-72939300D03*
X198501400Y-72939300D03*
X199151400Y-72939300D03*
X199801400Y-72939300D03*
X200451400Y-72939300D03*
X200451400Y-67214300D03*
X199801400Y-67214300D03*
X199151400Y-67214300D03*
X198501400Y-67214300D03*
X197851400Y-67214300D03*
X197201400Y-67214300D03*
X196551400Y-67214300D03*
X195901400Y-67214300D03*
%TD*%
D19*
%TO.C,C4*%
X172649000Y-77280000D03*
X172649000Y-79180000D03*
%TD*%
D26*
%TO.C,TP1*%
X187452000Y-76507000D03*
%TD*%
D19*
%TO.C,C2*%
X172979100Y-92514000D03*
X172979100Y-94414000D03*
%TD*%
D26*
%TO.C,TP10*%
X177292000Y-76761000D03*
%TD*%
D10*
%TO.C,R2*%
X225806000Y-92335000D03*
X225806000Y-94160000D03*
%TD*%
D26*
%TO.C,TP5*%
X204089000Y-67871000D03*
%TD*%
D20*
%TO.C,J9*%
X161910000Y-90523000D03*
D21*
X161910000Y-86563000D03*
X161910000Y-82603000D03*
X161910000Y-78643000D03*
X161910000Y-74683000D03*
%TD*%
D11*
%TO.C,R8*%
X166116000Y-63045000D03*
X166116000Y-61220000D03*
%TD*%
D24*
%TO.C,H4*%
X236220000Y-46990000D03*
%TD*%
D31*
%TO.C,U4*%
X185287500Y-73647000D03*
X185287500Y-72697000D03*
X185287500Y-71747000D03*
X183012500Y-71747000D03*
X183012500Y-73647000D03*
%TD*%
D11*
%TO.C,R11*%
X165862000Y-84277500D03*
X165862000Y-82452500D03*
%TD*%
D12*
%TO.C,J5*%
X210133200Y-59744400D03*
D13*
X212673200Y-59744400D03*
X215213200Y-59744400D03*
X217753200Y-59744400D03*
X220293200Y-59744400D03*
X222833200Y-59744400D03*
X225373200Y-59744400D03*
X227913200Y-59744400D03*
X230453200Y-59744400D03*
X232993200Y-59744400D03*
X235533200Y-59744400D03*
X238073200Y-59744400D03*
%TD*%
D32*
%TO.C,U6*%
X172912500Y-103947000D03*
X173562500Y-103947000D03*
X174212500Y-103947000D03*
X174862500Y-103947000D03*
X175512500Y-103947000D03*
X176162500Y-103947000D03*
X176812500Y-103947000D03*
X177462500Y-103947000D03*
X177462500Y-98397000D03*
X176812500Y-98397000D03*
X176162500Y-98397000D03*
X175512500Y-98397000D03*
X174862500Y-98397000D03*
X174212500Y-98397000D03*
X173562500Y-98397000D03*
X172912500Y-98397000D03*
D33*
X173845000Y-101907000D03*
X174740000Y-101907000D03*
X175635000Y-101907000D03*
X176530000Y-101907000D03*
X173845000Y-100437000D03*
X174740000Y-100437000D03*
X175635000Y-100437000D03*
X176530000Y-100437000D03*
%TD*%
D26*
%TO.C,TP9*%
X167640000Y-88445000D03*
%TD*%
%TO.C,TP3*%
X227076000Y-114099000D03*
%TD*%
D34*
%TO.C,U5*%
X188666000Y-67128000D03*
X188666000Y-66478000D03*
X188666000Y-65828000D03*
X188666000Y-65178000D03*
X188666000Y-64528000D03*
X188666000Y-63878000D03*
X188666000Y-63228000D03*
X188666000Y-62578000D03*
X188666000Y-61928000D03*
X188666000Y-61278000D03*
X188666000Y-60628000D03*
X188666000Y-59978000D03*
X181666000Y-59978000D03*
X181666000Y-60628000D03*
X181666000Y-61278000D03*
X181666000Y-61928000D03*
X181666000Y-62578000D03*
X181666000Y-63228000D03*
X181666000Y-63878000D03*
X181666000Y-64528000D03*
X181666000Y-65178000D03*
X181666000Y-65828000D03*
X181666000Y-66478000D03*
X181666000Y-67128000D03*
%TD*%
M02*
